<svg width="145" height="17" viewBox="0 0 145 17" fill="none" xmlns="http://www.w3.org/2000/svg">
<mask id="mask0_28491_1900" style="mask-type:alpha" maskUnits="userSpaceOnUse" x="0" y="0" width="145" height="17">
<rect width="144.255" height="16.2075" fill="#C4C4C4"/>
</mask>
<g mask="url(#mask0_28491_1900)">
<path d="M71.959 1.23431C103.584 1.23436 132.211 5.8126 152.928 13.2109C163.287 16.9102 171.662 21.313 177.445 26.1962C183.229 31.0798 186.41 36.4334 186.41 42.038C186.41 47.6427 183.229 52.9972 177.445 57.8808C171.662 62.7639 163.286 67.1659 152.928 70.8652C132.211 78.2635 103.584 82.8417 71.959 82.8417C40.3333 82.8417 11.706 78.2635 -9.01074 70.8652C-19.3694 67.1659 -27.7448 62.7639 -33.5283 57.8808C-39.3124 52.9972 -42.4932 47.6427 -42.4932 42.038C-42.4931 36.4334 -39.3123 31.0798 -33.5283 26.1962C-27.7448 21.313 -19.3696 16.9102 -9.01074 13.2109C11.706 5.81254 40.3334 1.23431 71.959 1.23431Z" fill="url(#paint0_linear_28491_1900)" fill-opacity="0.3" stroke="#61C3F2" stroke-width="0.215238"/>
</g>
<defs>
<linearGradient id="paint0_linear_28491_1900" x1="71.9586" y1="1.12689" x2="71.9586" y2="12.5828" gradientUnits="userSpaceOnUse">
<stop stop-color="#61C3F2" stop-opacity="0.26"/>
<stop offset="1" stop-color="#61C3F2" stop-opacity="0"/>
</linearGradient>
</defs>
</svg>
